PathFileType   4   (X/Y/Z)
DataRate	CameraRate	NumFrames	NumMarkers	Units	OrigDataRate	OrigDataStartFrame	OrigNumFrames
120.0	120.0	10	37	mm	120.0	95	108
Frame#	Time	midhip	hip_r	hip_l	knee_r	knee_l	ankle_r	ankle_l	midasis	asis_r	asis_l	psis_r	psis_l	epicondLat_r	epicondLat_l	epicondMed_r	epicondMed_l	malleolusLat_r	malleolusLat_l	malleolusMedv_r	malleolusMedv_l	neck	subclavicle_r	subclavicle_l	sternalnotch	xyphoidprocess	thighwand_r	thighwand_l	upperleg1_r	upperleg1_l	upperleg2_r	upperleg2_l	shankwand_r	shankwand_l	lowerleg1_r	lowerleg1_l	toe_r	toe_l
 	 	X1	Y1	Z1	X2	Y2	Z2	X3	Y3	Z3	X4	Y4	Z4	X5	Y5	Z5	X6	Y6	Z6	X7	Y7	Z7	X8	Y8	Z8	X9	Y9	Z9	X10	Y10	Z10	X11	Y11	Z11	X12	Y12	Z12	X13	Y13	Z13	X14	Y14	Z14	X15	Y15	Z15	X16	Y16	Z16	X17	Y17	Z17	X18	Y18	Z18	X19	Y19	Z19	X20	Y20	Z20	X21	Y21	Z21	X22	Y22	Z22	X23	Y23	Z23	X24	Y24	Z24	X25	Y25	Z25	X26	Y26	Z26	X27	Y27	Z27	X28	Y28	Z28	X29	Y29	Z29	X30	Y30	Z30	X31	Y31	Z31	X32	Y32	Z32	X33	Y33	Z33	X34	Y34	Z34	X35	Y35	Z35	X36	Y36	Z36	X37	Y37	Z37

	95	0.87500	1629.156	873.973	-176.377	1622.369	849.227	-106.922	1622.594	854.211	-257.268	1817.759	473.493	-90.685	1497.985	465.797	-219.959	1933.392	86.207	-103.064	1368.336	90.541	-169.889	1709.116	938.331	-179.094	1708.939	934.423	-61.210	1709.293	942.238	-296.977	1522.509	974.941	-137.355	1527.974	981.023	-222.655	1817.367	475.815	-32.233	1505.088	458.040	-276.997	1798.452	448.312	-140.773	1476.089	463.035	-169.007	1917.823	80.395	-66.679	1351.380	91.715	-204.990	1942.449	105.584	-129.347	1375.077	107.549	-144.355	1530.745	1401.629	-181.258	1652.563	1328.071	-117.523	1670.707	1332.817	-224.923	1644.175	1338.265	-170.708	1730.483	1176.278	-175.370	1807.907	570.421	44.710	1661.201	498.776	-218.343	1794.707	636.116	-20.582	1616.331	571.885	-268.418	1829.901	557.076	-42.779	1570.115	497.832	-260.661	1888.598	211.383	25.383	1418.622	204.242	-305.425	1897.291	179.664	-48.653	1391.621	183.097	-231.091	2053.525	87.539	-88.380	1479.345	39.361	-180.832
	96	0.88333	1641.912	871.178	-175.832	1635.543	846.490	-106.574	1634.470	851.536	-256.915	1830.711	471.690	-91.746	1507.249	464.733	-219.161	1957.333	87.339	-106.020	1369.685	92.102	-169.759	1721.378	935.909	-179.445	1722.225	931.930	-60.924	1720.531	939.887	-297.966	1535.162	971.819	-135.905	1539.943	978.000	-221.275	1830.202	473.737	-33.284	1512.904	457.286	-276.402	1808.065	446.687	-142.528	1485.850	462.297	-169.076	1941.844	80.888	-69.709	1352.536	93.795	-204.745	1965.740	107.676	-132.188	1376.695	108.958	-143.938	1543.762	1399.354	-181.018	1665.359	1325.943	-117.362	1683.061	1330.182	-224.910	1656.785	1335.676	-170.625	1742.679	1173.719	-174.906	1820.799	567.376	43.978	1670.824	495.832	-221.237	1806.920	633.580	-20.879	1626.150	570.057	-269.673	1841.449	554.584	-44.209	1578.622	496.699	-262.097	1908.655	210.743	23.030	1421.634	205.361	-305.130	1918.989	180.149	-51.379	1394.591	184.383	-230.508	2077.756	90.931	-91.881	1479.699	39.357	-180.822
	97	0.89167	1654.995	868.719	-175.387	1648.869	843.981	-106.282	1646.564	848.992	-256.610	1843.741	470.098	-92.861	1516.858	463.674	-218.444	1978.867	88.165	-109.048	1371.177	93.920	-169.778	1733.851	933.633	-179.862	1735.677	929.663	-60.743	1732.025	937.604	-298.981	1548.082	968.970	-134.559	1552.171	975.131	-219.982	1843.111	471.868	-34.391	1521.137	456.548	-275.846	1819.011	444.601	-143.736	1496.913	460.958	-168.123	1963.441	81.172	-72.811	1353.862	96.152	-204.652	1987.028	109.255	-135.135	1378.389	110.652	-143.795	1556.604	1397.323	-180.944	1678.077	1323.476	-116.897	1695.424	1327.372	-224.943	1669.430	1333.306	-170.429	1754.512	1170.766	-174.567	1833.725	564.625	43.169	1680.772	493.063	-224.045	1819.371	631.115	-21.622	1636.184	568.579	-270.723	1853.454	552.227	-45.405	1587.696	495.264	-262.888	1927.168	209.949	20.595	1424.908	206.713	-304.926	1938.664	180.074	-53.976	1396.871	185.996	-230.013	2099.502	93.551	-95.372	1480.057	39.368	-180.913
	98	0.90000	1668.216	866.449	-174.910	1662.340	841.781	-106.021	1658.923	846.631	-256.333	1856.856	468.711	-94.044	1526.803	462.637	-217.829	1997.978	88.529	-112.125	1372.852	96.025	-169.989	1746.574	931.552	-180.313	1749.294	927.691	-60.687	1743.855	935.412	-299.938	1561.276	966.490	-133.371	1564.716	972.507	-218.827	1856.120	470.205	-35.568	1529.852	455.821	-275.346	1832.623	443.476	-145.288	1508.752	459.416	-165.755	1982.599	81.100	-75.955	1355.413	98.810	-204.762	2007.223	110.694	-137.935	1380.229	112.558	-143.743	1568.976	1395.374	-180.715	1690.751	1321.119	-116.317	1707.980	1324.963	-225.180	1682.135	1331.196	-170.121	1766.851	1168.264	-174.480	1846.722	562.220	42.273	1691.023	490.518	-226.594	1832.029	629.305	-21.910	1645.752	567.083	-271.661	1866.527	550.431	-46.197	1596.814	493.678	-262.885	1944.161	208.927	18.087	1428.526	208.299	-304.838	1955.900	179.602	-56.621	1399.681	188.379	-230.035	2118.742	95.185	-98.858	1480.432	39.380	-181.085
	99	0.90833	1681.558	864.387	-174.252	1675.965	839.951	-105.766	1671.595	844.505	-256.063	1870.057	467.507	-95.305	1537.104	461.629	-217.318	2014.704	88.317	-115.218	1374.757	98.437	-170.423	1759.591	929.707	-180.759	1763.081	926.071	-60.760	1756.101	933.344	-300.758	1574.753	964.446	-132.376	1577.617	970.213	-217.849	1869.259	468.733	-36.823	1539.107	455.097	-274.915	1847.003	443.544	-147.120	1520.953	458.070	-163.525	1999.364	80.569	-79.098	1357.245	101.786	-205.109	2022.344	110.544	-140.971	1382.109	114.764	-143.926	1581.699	1393.543	-180.446	1703.535	1319.233	-115.922	1720.840	1322.856	-224.874	1694.898	1329.311	-169.742	1779.545	1166.204	-173.796	1859.859	560.177	41.275	1701.575	488.217	-228.779	1845.017	628.213	-21.684	1655.572	565.367	-272.369	1880.050	549.315	-46.712	1606.816	492.606	-262.749	1959.703	207.626	15.514	1432.549	210.131	-304.896	1971.390	178.983	-59.425	1403.970	190.660	-230.242	2135.512	95.664	-102.349	1480.835	39.383	-181.314
	100	0.91667	1695.143	862.684	-173.480	1689.769	838.528	-105.483	1684.620	842.650	-255.768	1883.342	466.453	-96.652	1547.797	460.654	-216.922	2029.132	87.477	-118.287	1376.955	101.167	-171.099	1772.941	928.130	-181.163	1777.060	924.834	-60.952	1768.822	931.427	-301.373	1588.521	962.875	-131.575	1590.897	968.313	-217.059	1882.558	467.433	-38.165	1548.947	454.379	-274.570	1860.589	444.515	-149.614	1532.990	457.166	-162.110	2013.835	79.532	-82.192	1359.412	105.092	-205.709	2036.355	109.627	-144.387	1384.395	117.126	-144.552	1594.745	1391.864	-179.985	1716.157	1317.616	-115.513	1734.058	1321.443	-223.719	1707.699	1327.669	-169.319	1792.582	1164.737	-172.886	1873.227	558.478	40.144	1712.448	486.158	-230.577	1858.511	627.273	-21.538	1666.384	564.020	-272.716	1893.458	548.849	-47.571	1617.360	491.749	-262.680	1973.899	206.037	12.889	1437.016	212.229	-305.134	1985.302	177.499	-62.424	1408.339	192.950	-230.602	2149.911	94.873	-105.860	1481.276	39.363	-181.579
	101	0.92500	1709.048	861.437	-172.754	1703.778	837.521	-105.146	1698.020	841.081	-255.423	1896.699	465.524	-98.087	1558.919	459.722	-216.665	2041.401	86.036	-121.283	1379.515	104.216	-172.029	1786.652	926.829	-181.496	1791.260	923.980	-61.245	1782.044	929.678	-301.748	1602.590	961.782	-130.942	1604.557	966.839	-216.444	1896.041	466.292	-39.596	1559.394	453.686	-274.348	1874.366	445.631	-152.386	1544.801	456.780	-160.984	2026.164	78.019	-85.178	1361.968	108.735	-206.565	2048.550	107.713	-147.736	1387.396	119.804	-145.471	1606.899	1390.367	-179.333	1728.789	1316.387	-114.924	1747.358	1320.702	-222.982	1720.531	1326.342	-168.854	1806.435	1164.144	-172.339	1886.921	557.089	38.848	1723.686	484.324	-232.038	1872.285	626.363	-21.870	1678.160	562.980	-272.894	1907.057	548.783	-48.810	1627.984	490.568	-262.460	1986.876	204.207	10.238	1441.931	214.618	-305.583	1997.577	175.358	-65.301	1412.004	195.387	-231.437	2162.102	92.764	-109.404	1481.767	39.309	-181.853
	102	0.93333	1723.516	860.917	-172.214	1718.019	836.913	-104.743	1711.798	839.811	-255.015	1910.113	464.714	-99.605	1570.488	458.844	-216.576	2051.710	84.096	-124.161	1382.508	107.580	-173.220	1800.742	925.800	-181.747	1805.716	923.483	-61.603	1795.768	928.117	-301.891	1616.965	961.153	-130.440	1618.578	965.810	-215.964	1909.716	465.316	-41.109	1570.439	453.040	-274.285	1888.077	446.085	-154.808	1556.437	455.699	-161.025	2036.571	76.131	-88.003	1364.966	112.715	-207.671	2058.355	105.109	-150.928	1390.808	122.941	-146.741	1618.859	1389.187	-178.725	1741.425	1314.956	-114.472	1760.372	1319.826	-222.737	1733.379	1325.353	-168.325	1819.730	1163.211	-172.467	1901.012	555.986	37.356	1735.349	482.691	-233.266	1886.261	625.829	-22.814	1690.287	561.620	-272.739	1921.012	548.313	-50.481	1639.368	489.482	-262.640	1998.797	202.252	7.599	1447.284	217.322	-306.263	2008.230	173.410	-67.865	1415.623	197.514	-232.275	2172.305	89.376	-112.979	1482.328	39.225	-182.114
	103	0.94167	1738.546	861.089	-171.817	1732.500	836.675	-104.290	1725.947	838.848	-254.561	1923.557	464.045	-101.182	1582.522	458.024	-216.682	2060.312	81.821	-126.879	1386.008	111.246	-174.675	1815.208	925.035	-181.913	1820.438	923.300	-61.982	1809.978	926.769	-301.844	1631.641	960.961	-130.028	1632.934	965.221	-215.569	1923.569	464.539	-42.684	1582.060	452.456	-274.412	1901.287	446.375	-156.952	1568.673	454.893	-160.868	2045.337	74.025	-90.616	1368.462	117.029	-209.022	2066.938	102.150	-154.138	1394.926	126.381	-148.260	1631.452	1388.536	-178.388	1754.237	1313.693	-114.159	1773.093	1319.106	-222.348	1746.232	1324.689	-167.739	1832.375	1162.189	-172.968	1915.519	555.174	35.668	1747.503	481.230	-234.389	1901.134	625.566	-24.008	1702.395	560.231	-272.955	1935.302	547.696	-52.218	1651.332	488.716	-262.872	2009.881	200.335	5.021	1453.071	220.362	-307.191	2017.346	170.958	-70.441	1420.726	200.284	-233.053	2180.791	84.852	-116.552	1482.990	39.125	-182.338
	104	0.95000	1753.664	861.420	-171.496	1747.201	836.772	-103.814	1740.406	838.191	-254.083	1936.990	463.567	-102.783	1595.050	457.269	-217.011	2067.459	79.414	-129.403	1390.099	115.198	-176.402	1830.003	924.524	-182.024	1835.414	923.393	-62.349	1824.591	925.654	-301.700	1646.590	961.178	-129.678	1647.586	965.043	-215.219	1937.563	464.020	-44.287	1594.246	451.955	-274.761	1915.557	447.415	-159.711	1582.051	454.548	-159.459	2052.756	71.896	-92.970	1372.527	121.665	-210.613	2070.982	98.065	-157.336	1399.512	130.077	-149.805	1644.604	1387.656	-178.078	1767.272	1313.614	-113.662	1785.802	1318.975	-221.646	1759.072	1324.353	-167.102	1845.848	1162.354	-172.373	1930.423	554.686	33.810	1760.227	479.910	-235.547	1916.995	625.262	-25.023	1714.609	559.127	-273.729	1950.421	547.396	-53.944	1663.402	487.683	-262.673	2020.383	198.639	2.550	1459.315	223.756	-308.379	2025.557	168.271	-72.996	1427.210	203.774	-233.981	2187.860	79.446	-120.063	1483.791	39.030	-182.516
